<svg width="33" height="34" viewBox="0 0 33 34" fill="none" xmlns="http://www.w3.org/2000/svg">
<g id="vuesax/bold/bag-tick">
<g id="bag-tick">
<path id="Vector" d="M26.455 8.1725H25.905L21.2575 3.525C20.8863 3.15375 20.2813 3.15375 19.8963 3.525C19.525 3.89625 19.525 4.50125 19.8963 4.88625L23.1825 8.1725H9.8175L13.1037 4.88625C13.475 4.515 13.475 3.91 13.1037 3.525C12.7325 3.15375 12.1275 3.15375 11.7425 3.525L7.10875 8.1725H6.55875C5.32125 8.1725 2.75 8.1725 2.75 11.6925C2.75 13.0263 3.025 13.9063 3.6025 14.4837C3.9325 14.8275 4.33125 15.0062 4.7575 15.1025C5.15625 15.1987 5.5825 15.2125 5.995 15.2125H27.005C27.4312 15.2125 27.83 15.185 28.215 15.1025C29.37 14.8275 30.25 14.0025 30.25 11.6925C30.25 8.1725 27.6787 8.1725 26.455 8.1725Z" fill="#00FFF3"/>
<path id="Vector_2" d="M26.2488 17H6.75127C5.89877 17 5.25252 17.7562 5.39002 18.595L6.54502 25.6625C6.93002 28.0275 7.96127 30.75 12.54 30.75H20.2538C24.8875 30.75 25.7125 28.4263 26.2075 25.8275L27.5963 18.6362C27.7613 17.7837 27.115 17 26.2488 17ZM20.46 22.5687L15.9913 26.6937C15.7988 26.8725 15.5513 26.9688 15.29 26.9688C15.0288 26.9688 14.7675 26.8725 14.5613 26.6663L12.4988 24.6038C12.1 24.205 12.1 23.545 12.4988 23.1462C12.9113 22.7475 13.5575 22.7475 13.97 23.1462L15.3313 24.5075L19.0713 21.0562C19.4838 20.6712 20.1438 20.6987 20.5288 21.1112C20.9138 21.5375 20.8863 22.1837 20.46 22.5687Z" fill="#00FFF3"/>
</g>
</g>
</svg>
