<svg width="33" height="34" viewBox="0 0 33 34" fill="none" xmlns="http://www.w3.org/2000/svg">
<g id="vuesax/bold/card">
<g id="card">
<path id="Vector" d="M30.25 10.8812C30.25 11.7887 29.5075 12.5312 28.6 12.5312H4.4C3.4925 12.5312 2.75 11.7887 2.75 10.8812V10.8675C2.75 7.71875 5.29375 5.175 8.4425 5.175H24.5438C27.6925 5.175 30.25 7.7325 30.25 10.8812Z" fill="#00FFF3"/>
<path id="Vector_2" d="M2.75 16.2437V23.1325C2.75 26.2812 5.29375 28.825 8.4425 28.825H24.5438C27.6925 28.825 30.25 26.2675 30.25 23.1188V16.2437C30.25 15.3362 29.5075 14.5938 28.6 14.5938H4.4C3.4925 14.5937 2.75 15.3362 2.75 16.2437ZM11 24.2188H8.25C7.68625 24.2188 7.21875 23.7512 7.21875 23.1875C7.21875 22.6238 7.68625 22.1562 8.25 22.1562H11C11.5637 22.1562 12.0312 22.6238 12.0312 23.1875C12.0312 23.7512 11.5637 24.2188 11 24.2188ZM19.9375 24.2188H14.4375C13.8738 24.2188 13.4062 23.7512 13.4062 23.1875C13.4062 22.6238 13.8738 22.1562 14.4375 22.1562H19.9375C20.5012 22.1562 20.9688 22.6238 20.9688 23.1875C20.9688 23.7512 20.5012 24.2188 19.9375 24.2188Z" fill="#00FFF3"/>
</g>
</g>
</svg>
