<svg width="33" height="34" viewBox="0 0 33 34" fill="none" xmlns="http://www.w3.org/2000/svg">
<g id="vuesax/bold/message-notif">
<g id="message-notif">
<path id="Vector" d="M27.5 9.78125C29.5883 9.78125 31.2812 8.08833 31.2812 6C31.2812 3.91167 29.5883 2.21875 27.5 2.21875C25.4117 2.21875 23.7188 3.91167 23.7188 6C23.7188 8.08833 25.4117 9.78125 27.5 9.78125Z" fill="#00FFF3"/>
<path id="Vector_2" d="M26.18 11.7062C24.0213 11.2387 22.2613 9.47875 21.7938 7.32C21.615 6.48125 21.6012 5.67 21.7525 4.9C21.9312 4.0475 21.2988 3.25 20.4188 3.25H9.625C5.83 3.25 2.75 6.33 2.75 10.125V19.6812C2.75 23.4762 5.83 26.5563 9.625 26.5563H11.6875C12.0725 26.5563 12.5675 26.8038 12.7875 27.1063L14.85 29.8425C15.7575 31.0525 17.2425 31.0525 18.15 29.8425L20.2125 27.1063C20.4737 26.7625 20.8725 26.5563 21.3125 26.5563H23.3888C27.1838 26.5563 30.25 23.49 30.25 19.695V13.0812C30.25 12.215 29.4525 11.5825 28.6 11.7475C27.83 11.885 27.0188 11.885 26.18 11.7062ZM11 17C10.23 17 9.625 16.3813 9.625 15.625C9.625 14.8687 10.23 14.25 11 14.25C11.7563 14.25 12.375 14.8687 12.375 15.625C12.375 16.3813 11.77 17 11 17ZM16.5 17C15.73 17 15.125 16.3813 15.125 15.625C15.125 14.8687 15.73 14.25 16.5 14.25C17.2563 14.25 17.875 14.8687 17.875 15.625C17.875 16.3813 17.27 17 16.5 17ZM22 17C21.23 17 20.625 16.3813 20.625 15.625C20.625 14.8687 21.23 14.25 22 14.25C22.7563 14.25 23.375 14.8687 23.375 15.625C23.375 16.3813 22.77 17 22 17Z" fill="#00FFF3"/>
</g>
</g>
</svg>
