<svg width="33" height="34" viewBox="0 0 33 34" fill="none" xmlns="http://www.w3.org/2000/svg">
<g id="vuesax/bold/wifi-square">
<g id="wifi-square">
<path id="Vector" d="M22.2613 3.25H10.7387C5.73375 3.25 2.75 6.23375 2.75 11.2387V22.7475C2.75 27.7663 5.73375 30.75 10.7387 30.75H22.2475C27.2525 30.75 30.2362 27.7663 30.2362 22.7613V11.2387C30.25 6.23375 27.2663 3.25 22.2613 3.25ZM20.3363 23.325C20.13 23.5863 19.8275 23.7237 19.525 23.7237C19.305 23.7237 19.085 23.655 18.8925 23.5037C17.435 22.3762 15.5512 22.3762 14.0938 23.5037C13.64 23.8475 12.9937 23.765 12.65 23.325C12.3062 22.8713 12.3888 22.225 12.8287 21.8813C15.015 20.19 17.9575 20.19 20.1437 21.8813C20.6112 22.225 20.6938 22.8713 20.3363 23.325ZM23.375 19.0763C23.1688 19.3375 22.8662 19.475 22.5637 19.475C22.3438 19.475 22.1238 19.4062 21.9312 19.255C18.6312 16.7113 14.3825 16.7113 11.0825 19.255C10.6288 19.6125 9.9825 19.53 9.625 19.0763C9.2675 18.6225 9.36375 17.9762 9.80375 17.6325C13.86 14.4975 19.1125 14.4975 23.1688 17.6325C23.6363 17.9762 23.7188 18.6225 23.375 19.0763ZM25.5613 14.8275C25.355 15.0887 25.0525 15.2262 24.75 15.2262C24.53 15.2262 24.31 15.1575 24.1175 15.0063C19.4838 11.4313 13.5025 11.4313 8.8825 15.0063C8.42875 15.35 7.7825 15.2675 7.43875 14.8275C7.095 14.3737 7.1775 13.7275 7.6175 13.3837C13.0075 9.2175 19.9787 9.2175 25.3825 13.3837C25.8362 13.7275 25.9188 14.3737 25.5613 14.8275Z" fill="#00FFF3"/>
</g>
</g>
</svg>
