<svg width="10" height="9" viewBox="0 0 10 9" fill="none" xmlns="http://www.w3.org/2000/svg">
<path d="M9 0.499879C8.87498 0.374898 8.70544 0.304688 8.52867 0.304688C8.35189 0.304688 8.18235 0.374898 8.05733 0.499879L5 3.55721L1.94267 0.499879C1.81765 0.374898 1.64811 0.304688 1.47133 0.304688C1.29456 0.304688 1.12502 0.374898 1 0.499879C0.87502 0.624897 0.80481 0.794436 0.80481 0.971212C0.80481 1.14799 0.87502 1.31753 1 1.44255L4.05733 4.49988L1 7.55721C0.87502 7.68223 0.80481 7.85177 0.80481 8.02854C0.80481 8.20532 0.87502 8.37486 1 8.49988C1.12502 8.62486 1.29456 8.69507 1.47133 8.69507C1.64811 8.69507 1.81765 8.62486 1.94267 8.49988L5 5.44255L8.05733 8.49988C8.18235 8.62486 8.35189 8.69507 8.52867 8.69507C8.70544 8.69507 8.87498 8.62486 9 8.49988C9.12498 8.37486 9.19519 8.20532 9.19519 8.02854C9.19519 7.85177 9.12498 7.68223 9 7.55721L5.94267 4.49988L9 1.44255C9.12498 1.31753 9.19519 1.14799 9.19519 0.971212C9.19519 0.794436 9.12498 0.624897 9 0.499879V0.499879Z" fill="#FF0000"/>
</svg>
