<svg width="426" height="46" viewBox="0 0 426 46" fill="none" xmlns="http://www.w3.org/2000/svg">
<rect x="1" y="0.5" width="424" height="45" rx="10.5" fill="black" fill-opacity="0.26"/>
<rect x="1" y="0.5" width="424" height="45" rx="10.5" stroke="#11CEC5"/>
<path d="M27.692 28.14C26.3987 28.14 25.2187 27.84 24.152 27.24C23.0854 26.6267 22.2387 25.78 21.612 24.7C20.9987 23.6067 20.692 22.38 20.692 21.02C20.692 19.66 20.9987 18.44 21.612 17.36C22.2387 16.2667 23.0854 15.42 24.152 14.82C25.2187 14.2067 26.3987 13.9 27.692 13.9C28.9987 13.9 30.1854 14.2067 31.252 14.82C32.3187 15.42 33.1587 16.26 33.772 17.34C34.3854 18.42 34.692 19.6467 34.692 21.02C34.692 22.3933 34.3854 23.62 33.772 24.7C33.1587 25.78 32.3187 26.6267 31.252 27.24C30.1854 27.84 28.9987 28.14 27.692 28.14ZM27.692 26.56C28.6654 26.56 29.5387 26.3333 30.312 25.88C31.0987 25.4267 31.712 24.78 32.152 23.94C32.6054 23.1 32.832 22.1267 32.832 21.02C32.832 19.9 32.6054 18.9267 32.152 18.1C31.712 17.26 31.1054 16.6133 30.332 16.16C29.5587 15.7067 28.6787 15.48 27.692 15.48C26.7054 15.48 25.8254 15.7067 25.052 16.16C24.2787 16.6133 23.6654 17.26 23.212 18.1C22.772 18.9267 22.552 19.9 22.552 21.02C22.552 22.1267 22.772 23.1 23.212 23.94C23.6654 24.78 24.2787 25.4267 25.052 25.88C25.8387 26.3333 26.7187 26.56 27.692 26.56ZM41.7467 22.48C41.7467 21.36 41.9734 20.38 42.4267 19.54C42.8801 18.6867 43.5001 18.0267 44.2867 17.56C45.0867 17.0933 45.9801 16.86 46.9667 16.86C47.9134 16.86 48.7401 17.0733 49.4467 17.5C50.1667 17.9133 50.6934 18.4267 51.0267 19.04V17.04H52.8667V33.2H51.0267V25.98C50.6801 26.5933 50.1467 27.1133 49.4267 27.54C48.7067 27.9667 47.8667 28.18 46.9067 28.18C45.9467 28.18 45.0734 27.94 44.2867 27.46C43.5001 26.98 42.8801 26.3067 42.4267 25.44C41.9734 24.5733 41.7467 23.5867 41.7467 22.48ZM51.0267 22.5C51.0267 21.6733 50.8601 20.9533 50.5267 20.34C50.1934 19.7267 49.7401 19.26 49.1667 18.94C48.6067 18.6067 47.9867 18.44 47.3067 18.44C46.6267 18.44 46.0067 18.6 45.4467 18.92C44.8867 19.24 44.4401 19.7067 44.1067 20.32C43.7734 20.9333 43.6067 21.6533 43.6067 22.48C43.6067 23.32 43.7734 24.0533 44.1067 24.68C44.4401 25.2933 44.8867 25.7667 45.4467 26.1C46.0067 26.42 46.6267 26.58 47.3067 26.58C47.9867 26.58 48.6067 26.42 49.1667 26.1C49.7401 25.7667 50.1934 25.2933 50.5267 24.68C50.8601 24.0533 51.0267 23.3267 51.0267 22.5ZM65.6623 17.04V28H63.8423V26.38C63.4957 26.94 63.009 27.38 62.3823 27.7C61.769 28.0067 61.089 28.16 60.3423 28.16C59.489 28.16 58.7223 27.9867 58.0423 27.64C57.3623 27.28 56.8223 26.7467 56.4223 26.04C56.0357 25.3333 55.8423 24.4733 55.8423 23.46V17.04H57.6423V23.22C57.6423 24.3 57.9157 25.1333 58.4623 25.72C59.009 26.2933 59.7557 26.58 60.7023 26.58C61.6757 26.58 62.4423 26.28 63.0023 25.68C63.5623 25.08 63.8423 24.2067 63.8423 23.06V17.04H65.6623ZM78.7353 22.1C78.7353 22.4467 78.7153 22.8133 78.6753 23.2H69.9153C69.982 24.28 70.3486 25.1267 71.0153 25.74C71.6953 26.34 72.5153 26.64 73.4753 26.64C74.262 26.64 74.9153 26.46 75.4353 26.1C75.9686 25.7267 76.342 25.2333 76.5553 24.62H78.5153C78.222 25.6733 77.6353 26.5333 76.7553 27.2C75.8753 27.8533 74.782 28.18 73.4753 28.18C72.4353 28.18 71.502 27.9467 70.6753 27.48C69.862 27.0133 69.222 26.3533 68.7553 25.5C68.2886 24.6333 68.0553 23.6333 68.0553 22.5C68.0553 21.3667 68.282 20.3733 68.7353 19.52C69.1886 18.6667 69.822 18.0133 70.6353 17.56C71.462 17.0933 72.4086 16.86 73.4753 16.86C74.5153 16.86 75.4353 17.0867 76.2353 17.54C77.0353 17.9933 77.6486 18.62 78.0753 19.42C78.5153 20.2067 78.7353 21.1 78.7353 22.1ZM76.8553 21.72C76.8553 21.0267 76.702 20.4333 76.3953 19.94C76.0886 19.4333 75.6686 19.0533 75.1353 18.8C74.6153 18.5333 74.0353 18.4 73.3953 18.4C72.4753 18.4 71.6886 18.6933 71.0353 19.28C70.3953 19.8667 70.0286 20.68 69.9353 21.72H76.8553ZM90.5497 26.32L93.9497 17.04H95.8897L91.5897 28H89.4697L85.1697 17.04H87.1297L90.5497 26.32ZM102.461 28.18C101.434 28.18 100.501 27.9467 99.6606 27.48C98.834 27.0133 98.1806 26.3533 97.7006 25.5C97.234 24.6333 97.0006 23.6333 97.0006 22.5C97.0006 21.38 97.2406 20.3933 97.7206 19.54C98.214 18.6733 98.8806 18.0133 99.7206 17.56C100.561 17.0933 101.501 16.86 102.541 16.86C103.581 16.86 104.521 17.0933 105.361 17.56C106.201 18.0133 106.861 18.6667 107.341 19.52C107.834 20.3733 108.081 21.3667 108.081 22.5C108.081 23.6333 107.827 24.6333 107.321 25.5C106.827 26.3533 106.154 27.0133 105.301 27.48C104.447 27.9467 103.501 28.18 102.461 28.18ZM102.461 26.58C103.114 26.58 103.727 26.4267 104.301 26.12C104.874 25.8133 105.334 25.3533 105.681 24.74C106.041 24.1267 106.221 23.38 106.221 22.5C106.221 21.62 106.047 20.8733 105.701 20.26C105.354 19.6467 104.901 19.1933 104.341 18.9C103.781 18.5933 103.174 18.44 102.521 18.44C101.854 18.44 101.241 18.5933 100.681 18.9C100.134 19.1933 99.694 19.6467 99.3606 20.26C99.0273 20.8733 98.8606 21.62 98.8606 22.5C98.8606 23.3933 99.0206 24.1467 99.3406 24.76C99.674 25.3733 100.114 25.8333 100.661 26.14C101.207 26.4333 101.807 26.58 102.461 26.58ZM109.794 22.5C109.794 21.3667 110.02 20.38 110.474 19.54C110.927 18.6867 111.554 18.0267 112.354 17.56C113.167 17.0933 114.094 16.86 115.134 16.86C116.48 16.86 117.587 17.1867 118.454 17.84C119.334 18.4933 119.914 19.4 120.194 20.56H118.234C118.047 19.8933 117.68 19.3667 117.134 18.98C116.6 18.5933 115.934 18.4 115.134 18.4C114.094 18.4 113.254 18.76 112.614 19.48C111.974 20.1867 111.654 21.1933 111.654 22.5C111.654 23.82 111.974 24.84 112.614 25.56C113.254 26.28 114.094 26.64 115.134 26.64C115.934 26.64 116.6 26.4533 117.134 26.08C117.667 25.7067 118.034 25.1733 118.234 24.48H120.194C119.9 25.6 119.314 26.5 118.434 27.18C117.554 27.8467 116.454 28.18 115.134 28.18C114.094 28.18 113.167 27.9467 112.354 27.48C111.554 27.0133 110.927 26.3533 110.474 25.5C110.02 24.6467 109.794 23.6467 109.794 22.5ZM132.622 22.1C132.622 22.4467 132.602 22.8133 132.562 23.2H123.802C123.869 24.28 124.235 25.1267 124.902 25.74C125.582 26.34 126.402 26.64 127.362 26.64C128.149 26.64 128.802 26.46 129.322 26.1C129.855 25.7267 130.229 25.2333 130.442 24.62H132.402C132.109 25.6733 131.522 26.5333 130.642 27.2C129.762 27.8533 128.669 28.18 127.362 28.18C126.322 28.18 125.389 27.9467 124.562 27.48C123.749 27.0133 123.109 26.3533 122.642 25.5C122.175 24.6333 121.942 23.6333 121.942 22.5C121.942 21.3667 122.169 20.3733 122.622 19.52C123.075 18.6667 123.709 18.0133 124.522 17.56C125.349 17.0933 126.295 16.86 127.362 16.86C128.402 16.86 129.322 17.0867 130.122 17.54C130.922 17.9933 131.535 18.62 131.962 19.42C132.402 20.2067 132.622 21.1 132.622 22.1ZM130.742 21.72C130.742 21.0267 130.589 20.4333 130.282 19.94C129.975 19.4333 129.555 19.0533 129.022 18.8C128.502 18.5333 127.922 18.4 127.282 18.4C126.362 18.4 125.575 18.6933 124.922 19.28C124.282 19.8667 123.915 20.68 123.822 21.72H130.742ZM127.302 14.36L124.522 16.06V14.62L127.302 12.96L130.062 14.62V16.06L127.302 14.36ZM150.356 22.1C150.356 22.4467 150.336 22.8133 150.296 23.2H141.536C141.603 24.28 141.97 25.1267 142.636 25.74C143.316 26.34 144.136 26.64 145.096 26.64C145.883 26.64 146.536 26.46 147.056 26.1C147.59 25.7267 147.963 25.2333 148.176 24.62H150.136C149.843 25.6733 149.256 26.5333 148.376 27.2C147.496 27.8533 146.403 28.18 145.096 28.18C144.056 28.18 143.123 27.9467 142.296 27.48C141.483 27.0133 140.843 26.3533 140.376 25.5C139.91 24.6333 139.676 23.6333 139.676 22.5C139.676 21.3667 139.903 20.3733 140.356 19.52C140.81 18.6667 141.443 18.0133 142.256 17.56C143.083 17.0933 144.03 16.86 145.096 16.86C146.136 16.86 147.056 17.0867 147.856 17.54C148.656 17.9933 149.27 18.62 149.696 19.42C150.136 20.2067 150.356 21.1 150.356 22.1ZM148.476 21.72C148.476 21.0267 148.323 20.4333 148.016 19.94C147.71 19.4333 147.29 19.0533 146.756 18.8C146.236 18.5333 145.656 18.4 145.016 18.4C144.096 18.4 143.31 18.6933 142.656 19.28C142.016 19.8667 141.65 20.68 141.556 21.72H148.476ZM156.639 28.18C155.799 28.18 155.045 28.04 154.379 27.76C153.712 27.4667 153.185 27.0667 152.799 26.56C152.412 26.04 152.199 25.4467 152.159 24.78H154.039C154.092 25.3267 154.345 25.7733 154.799 26.12C155.265 26.4667 155.872 26.64 156.619 26.64C157.312 26.64 157.859 26.4867 158.259 26.18C158.659 25.8733 158.859 25.4867 158.859 25.02C158.859 24.54 158.645 24.1867 158.219 23.96C157.792 23.72 157.132 23.4867 156.239 23.26C155.425 23.0467 154.759 22.8333 154.239 22.62C153.732 22.3933 153.292 22.0667 152.919 21.64C152.559 21.2 152.379 20.6267 152.379 19.92C152.379 19.36 152.545 18.8467 152.879 18.38C153.212 17.9133 153.685 17.5467 154.299 17.28C154.912 17 155.612 16.86 156.399 16.86C157.612 16.86 158.592 17.1667 159.339 17.78C160.085 18.3933 160.485 19.2333 160.539 20.3H158.719C158.679 19.7267 158.445 19.2667 158.019 18.92C157.605 18.5733 157.045 18.4 156.339 18.4C155.685 18.4 155.165 18.54 154.779 18.82C154.392 19.1 154.199 19.4667 154.199 19.92C154.199 20.28 154.312 20.58 154.539 20.82C154.779 21.0467 155.072 21.2333 155.419 21.38C155.779 21.5133 156.272 21.6667 156.899 21.84C157.685 22.0533 158.325 22.2667 158.819 22.48C159.312 22.68 159.732 22.9867 160.079 23.4C160.439 23.8133 160.625 24.3533 160.639 25.02C160.639 25.62 160.472 26.16 160.139 26.64C159.805 27.12 159.332 27.5 158.719 27.78C158.119 28.0467 157.425 28.18 156.639 28.18ZM165.428 18.54V25C165.428 25.5333 165.541 25.9133 165.768 26.14C165.995 26.3533 166.388 26.46 166.948 26.46H168.288V28H166.648C165.635 28 164.875 27.7667 164.368 27.3C163.861 26.8333 163.608 26.0667 163.608 25V18.54H162.188V17.04H163.608V14.28H165.428V17.04H168.288V18.54H165.428ZM169.813 22.48C169.813 21.36 170.04 20.38 170.493 19.54C170.946 18.6867 171.566 18.0267 172.353 17.56C173.153 17.0933 174.04 16.86 175.013 16.86C175.973 16.86 176.806 17.0667 177.513 17.48C178.22 17.8933 178.746 18.4133 179.093 19.04V17.04H180.933V28H179.093V25.96C178.733 26.6 178.193 27.1333 177.473 27.56C176.766 27.9733 175.94 28.18 174.993 28.18C174.02 28.18 173.14 27.94 172.353 27.46C171.566 26.98 170.946 26.3067 170.493 25.44C170.04 24.5733 169.813 23.5867 169.813 22.48ZM179.093 22.5C179.093 21.6733 178.926 20.9533 178.593 20.34C178.26 19.7267 177.806 19.26 177.233 18.94C176.673 18.6067 176.053 18.44 175.373 18.44C174.693 18.44 174.073 18.6 173.513 18.92C172.953 19.24 172.506 19.7067 172.173 20.32C171.84 20.9333 171.673 21.6533 171.673 22.48C171.673 23.32 171.84 24.0533 172.173 24.68C172.506 25.2933 172.953 25.7667 173.513 26.1C174.073 26.42 174.693 26.58 175.373 26.58C176.053 26.58 176.673 26.42 177.233 26.1C177.806 25.7667 178.26 25.2933 178.593 24.68C178.926 24.0533 179.093 23.3267 179.093 22.5ZM177.673 13.94L173.413 16.22V14.86L177.673 12.36V13.94ZM191.161 19.06C191.521 18.4333 192.054 17.9133 192.761 17.5C193.481 17.0733 194.314 16.86 195.261 16.86C196.234 16.86 197.114 17.0933 197.901 17.56C198.701 18.0267 199.327 18.6867 199.781 19.54C200.234 20.38 200.461 21.36 200.461 22.48C200.461 23.5867 200.234 24.5733 199.781 25.44C199.327 26.3067 198.701 26.98 197.901 27.46C197.114 27.94 196.234 28.18 195.261 28.18C194.327 28.18 193.501 27.9733 192.781 27.56C192.074 27.1333 191.534 26.6067 191.161 25.98V33.2H189.341V17.04H191.161V19.06ZM198.601 22.48C198.601 21.6533 198.434 20.9333 198.101 20.32C197.767 19.7067 197.314 19.24 196.741 18.92C196.181 18.6 195.561 18.44 194.881 18.44C194.214 18.44 193.594 18.6067 193.021 18.94C192.461 19.26 192.007 19.7333 191.661 20.36C191.327 20.9733 191.161 21.6867 191.161 22.5C191.161 23.3267 191.327 24.0533 191.661 24.68C192.007 25.2933 192.461 25.7667 193.021 26.1C193.594 26.42 194.214 26.58 194.881 26.58C195.561 26.58 196.181 26.42 196.741 26.1C197.314 25.7667 197.767 25.2933 198.101 24.68C198.434 24.0533 198.601 23.32 198.601 22.48ZM204.676 18.82C204.996 18.1933 205.45 17.7067 206.036 17.36C206.636 17.0133 207.363 16.84 208.216 16.84V18.72H207.736C205.696 18.72 204.676 19.8267 204.676 22.04V28H202.856V17.04H204.676V18.82ZM215.097 28.18C214.071 28.18 213.137 27.9467 212.297 27.48C211.471 27.0133 210.817 26.3533 210.337 25.5C209.871 24.6333 209.637 23.6333 209.637 22.5C209.637 21.38 209.877 20.3933 210.357 19.54C210.851 18.6733 211.517 18.0133 212.357 17.56C213.197 17.0933 214.137 16.86 215.177 16.86C216.217 16.86 217.157 17.0933 217.997 17.56C218.837 18.0133 219.497 18.6667 219.977 19.52C220.471 20.3733 220.717 21.3667 220.717 22.5C220.717 23.6333 220.464 24.6333 219.957 25.5C219.464 26.3533 218.791 27.0133 217.937 27.48C217.084 27.9467 216.137 28.18 215.097 28.18ZM215.097 26.58C215.751 26.58 216.364 26.4267 216.937 26.12C217.511 25.8133 217.971 25.3533 218.317 24.74C218.677 24.1267 218.857 23.38 218.857 22.5C218.857 21.62 218.684 20.8733 218.337 20.26C217.991 19.6467 217.537 19.1933 216.977 18.9C216.417 18.5933 215.811 18.44 215.157 18.44C214.491 18.44 213.877 18.5933 213.317 18.9C212.771 19.1933 212.331 19.6467 211.997 20.26C211.664 20.8733 211.497 21.62 211.497 22.5C211.497 23.3933 211.657 24.1467 211.977 24.76C212.311 25.3733 212.751 25.8333 213.297 26.14C213.844 26.4333 214.444 26.58 215.097 26.58ZM222.43 22.5C222.43 21.3667 222.657 20.38 223.11 19.54C223.564 18.6867 224.19 18.0267 224.99 17.56C225.804 17.0933 226.73 16.86 227.77 16.86C229.117 16.86 230.224 17.1867 231.09 17.84C231.97 18.4933 232.55 19.4 232.83 20.56H230.87C230.684 19.8933 230.317 19.3667 229.77 18.98C229.237 18.5933 228.57 18.4 227.77 18.4C226.73 18.4 225.89 18.76 225.25 19.48C224.61 20.1867 224.29 21.1933 224.29 22.5C224.29 23.82 224.61 24.84 225.25 25.56C225.89 26.28 226.73 26.64 227.77 26.64C228.57 26.64 229.237 26.4533 229.77 26.08C230.304 25.7067 230.67 25.1733 230.87 24.48H232.83C232.537 25.6 231.95 26.5 231.07 27.18C230.19 27.8467 229.09 28.18 227.77 28.18C226.73 28.18 225.804 27.9467 224.99 27.48C224.19 27.0133 223.564 26.3533 223.11 25.5C222.657 24.6467 222.43 23.6467 222.43 22.5ZM244.979 17.04V28H243.159V26.38C242.812 26.94 242.325 27.38 241.699 27.7C241.085 28.0067 240.405 28.16 239.659 28.16C238.805 28.16 238.039 27.9867 237.359 27.64C236.679 27.28 236.139 26.7467 235.739 26.04C235.352 25.3333 235.159 24.4733 235.159 23.46V17.04H236.959V23.22C236.959 24.3 237.232 25.1333 237.779 25.72C238.325 26.2933 239.072 26.58 240.019 26.58C240.992 26.58 241.759 26.28 242.319 25.68C242.879 25.08 243.159 24.2067 243.159 23.06V17.04H244.979ZM249.872 18.82C250.192 18.1933 250.645 17.7067 251.232 17.36C251.832 17.0133 252.558 16.84 253.412 16.84V18.72H252.932C250.892 18.72 249.872 19.8267 249.872 22.04V28H248.052V17.04H249.872V18.82ZM254.833 22.48C254.833 21.36 255.059 20.38 255.513 19.54C255.966 18.6867 256.586 18.0267 257.373 17.56C258.173 17.0933 259.059 16.86 260.033 16.86C260.993 16.86 261.826 17.0667 262.533 17.48C263.239 17.8933 263.766 18.4133 264.113 19.04V17.04H265.953V28H264.113V25.96C263.753 26.6 263.213 27.1333 262.493 27.56C261.786 27.9733 260.959 28.18 260.013 28.18C259.039 28.18 258.159 27.94 257.373 27.46C256.586 26.98 255.966 26.3067 255.513 25.44C255.059 24.5733 254.833 23.5867 254.833 22.48ZM264.113 22.5C264.113 21.6733 263.946 20.9533 263.613 20.34C263.279 19.7267 262.826 19.26 262.253 18.94C261.693 18.6067 261.073 18.44 260.393 18.44C259.713 18.44 259.093 18.6 258.533 18.92C257.973 19.24 257.526 19.7067 257.193 20.32C256.859 20.9333 256.693 21.6533 256.693 22.48C256.693 23.32 256.859 24.0533 257.193 24.68C257.526 25.2933 257.973 25.7667 258.533 26.1C259.093 26.42 259.713 26.58 260.393 26.58C261.073 26.58 261.693 26.42 262.253 26.1C262.826 25.7667 263.279 25.2933 263.613 24.68C263.946 24.0533 264.113 23.3267 264.113 22.5ZM274.368 16.84C275.702 16.84 276.782 17.2467 277.608 18.06C278.435 18.86 278.848 20.02 278.848 21.54V28H277.048V21.8C277.048 20.7067 276.775 19.8733 276.228 19.3C275.682 18.7133 274.935 18.42 273.988 18.42C273.028 18.42 272.262 18.72 271.688 19.32C271.128 19.92 270.848 20.7933 270.848 21.94V28H269.028V17.04H270.848V18.6C271.208 18.04 271.695 17.6067 272.308 17.3C272.935 16.9933 273.622 16.84 274.368 16.84ZM281.141 22.48C281.141 21.36 281.368 20.38 281.821 19.54C282.275 18.6867 282.895 18.0267 283.681 17.56C284.481 17.0933 285.375 16.86 286.361 16.86C287.215 16.86 288.008 17.06 288.741 17.46C289.475 17.8467 290.035 18.36 290.421 19V13.2H292.261V28H290.421V25.94C290.061 26.5933 289.528 27.1333 288.821 27.56C288.115 27.9733 287.288 28.18 286.341 28.18C285.368 28.18 284.481 27.94 283.681 27.46C282.895 26.98 282.275 26.3067 281.821 25.44C281.368 24.5733 281.141 23.5867 281.141 22.48ZM290.421 22.5C290.421 21.6733 290.255 20.9533 289.921 20.34C289.588 19.7267 289.135 19.26 288.561 18.94C288.001 18.6067 287.381 18.44 286.701 18.44C286.021 18.44 285.401 18.6 284.841 18.92C284.281 19.24 283.835 19.7067 283.501 20.32C283.168 20.9333 283.001 21.6533 283.001 22.48C283.001 23.32 283.168 24.0533 283.501 24.68C283.835 25.2933 284.281 25.7667 284.841 26.1C285.401 26.42 286.021 26.58 286.701 26.58C287.381 26.58 288.001 26.42 288.561 26.1C289.135 25.7667 289.588 25.2933 289.921 24.68C290.255 24.0533 290.421 23.3267 290.421 22.5ZM300.117 28.18C299.09 28.18 298.157 27.9467 297.317 27.48C296.49 27.0133 295.837 26.3533 295.357 25.5C294.89 24.6333 294.657 23.6333 294.657 22.5C294.657 21.38 294.897 20.3933 295.377 19.54C295.87 18.6733 296.537 18.0133 297.377 17.56C298.217 17.0933 299.157 16.86 300.197 16.86C301.237 16.86 302.177 17.0933 303.017 17.56C303.857 18.0133 304.517 18.6667 304.997 19.52C305.49 20.3733 305.737 21.3667 305.737 22.5C305.737 23.6333 305.484 24.6333 304.977 25.5C304.484 26.3533 303.81 27.0133 302.957 27.48C302.104 27.9467 301.157 28.18 300.117 28.18ZM300.117 26.58C300.77 26.58 301.384 26.4267 301.957 26.12C302.53 25.8133 302.99 25.3533 303.337 24.74C303.697 24.1267 303.877 23.38 303.877 22.5C303.877 21.62 303.704 20.8733 303.357 20.26C303.01 19.6467 302.557 19.1933 301.997 18.9C301.437 18.5933 300.83 18.44 300.177 18.44C299.51 18.44 298.897 18.5933 298.337 18.9C297.79 19.1933 297.35 19.6467 297.017 20.26C296.684 20.8733 296.517 21.62 296.517 22.5C296.517 23.3933 296.677 24.1467 296.997 24.76C297.33 25.3733 297.77 25.8333 298.317 26.14C298.864 26.4333 299.464 26.58 300.117 26.58ZM311.69 13.88C313.01 13.88 314.077 14.2533 314.89 15C315.703 15.7467 316.11 16.7467 316.11 18C316.11 19.4 315.677 20.44 314.81 21.12C313.943 21.7867 312.77 22.12 311.29 22.12L311.23 24.02H309.65L309.57 20.86H310.15C311.47 20.86 312.503 20.66 313.25 20.26C313.997 19.86 314.37 19.1067 314.37 18C314.37 17.2 314.13 16.5667 313.65 16.1C313.17 15.6333 312.523 15.4 311.71 15.4C310.883 15.4 310.23 15.6267 309.75 16.08C309.283 16.52 309.05 17.1267 309.05 17.9H307.33C307.33 17.1 307.51 16.4 307.87 15.8C308.23 15.1867 308.737 14.7133 309.39 14.38C310.057 14.0467 310.823 13.88 311.69 13.88ZM310.43 28.12C310.083 28.12 309.79 28 309.55 27.76C309.31 27.52 309.19 27.2267 309.19 26.88C309.19 26.5333 309.31 26.24 309.55 26C309.79 25.76 310.083 25.64 310.43 25.64C310.763 25.64 311.043 25.76 311.27 26C311.51 26.24 311.63 26.5333 311.63 26.88C311.63 27.2267 311.51 27.52 311.27 27.76C311.043 28 310.763 28.12 310.43 28.12Z" fill="#595959"/>
<ellipse cx="392" cy="19.5417" rx="9" ry="8.75" stroke="#00FFF3"/>
<path d="M405.5 32.6667L401 28.2917" stroke="#00FFF3" stroke-linecap="round"/>
</svg>
