<svg width="24" height="18" viewBox="0 0 24 18" fill="none" xmlns="http://www.w3.org/2000/svg">
<path d="M23.8209 8.181C22.9429 6.261 19.4999 0 11.9999 0C4.49987 0 1.05687 6.261 0.178871 8.181C0.0610095 8.4383 0 8.71799 0 9.001C0 9.28401 0.0610095 9.5637 0.178871 9.821C1.05687 11.739 4.49987 18 11.9999 18C19.4999 18 22.9429 11.739 23.8209 9.819C23.9385 9.56199 23.9994 9.28265 23.9994 9C23.9994 8.71735 23.9385 8.43801 23.8209 8.181ZM11.9999 16C5.69287 16 2.74987 10.634 1.99987 9.011C2.74987 7.366 5.69287 2 11.9999 2C18.2919 2 21.2359 7.343 21.9999 9C21.2359 10.657 18.2919 16 11.9999 16Z" fill="#374957"/>
<path d="M12 4.00037C11.0111 4.00037 10.0444 4.29361 9.22215 4.84302C8.39991 5.39243 7.75904 6.17332 7.3806 7.08695C7.00217 8.00058 6.90315 9.00591 7.09608 9.97582C7.289 10.9457 7.76521 11.8366 8.46447 12.5359C9.16373 13.2352 10.0546 13.7114 11.0246 13.9043C11.9945 14.0972 12.9998 13.9982 13.9134 13.6198C14.827 13.2413 15.6079 12.6005 16.1574 11.7782C16.7068 10.956 17 9.98927 17 9.00037C16.9984 7.67477 16.4711 6.40392 15.5338 5.46659C14.5964 4.52925 13.3256 4.00195 12 4.00037ZM12 12.0004C11.4067 12.0004 10.8266 11.8244 10.3333 11.4948C9.83994 11.1651 9.45543 10.6966 9.22836 10.1484C9.0013 9.60024 8.94189 8.99704 9.05765 8.4151C9.1734 7.83315 9.45912 7.2986 9.87868 6.87905C10.2982 6.45949 10.8328 6.17377 11.4147 6.05801C11.9967 5.94225 12.5999 6.00166 13.1481 6.22873C13.6962 6.45579 14.1648 6.84031 14.4944 7.33366C14.8241 7.827 15 8.40702 15 9.00037C15 9.79602 14.6839 10.5591 14.1213 11.1217C13.5587 11.6843 12.7957 12.0004 12 12.0004Z" fill="#374957"/>
</svg>
