<svg width="19" height="19" viewBox="0 0 19 19" fill="none" xmlns="http://www.w3.org/2000/svg">
<path d="M7.46069 11.0417C7.16006 10.6024 6.99048 10.0705 6.99048 9.50006C6.99048 7.97381 8.22381 6.74048 9.75006 6.74048C11.2763 6.74048 12.5096 7.97381 12.5096 9.50006C12.5096 11.0263 11.2763 12.2596 9.75006 12.2596" stroke="#6C6C6C" stroke-width="1.5" stroke-linecap="round" stroke-linejoin="round"/>
<path d="M14.0358 4.55129C12.7331 3.62629 11.2685 3.12524 9.74997 3.12524C7.02893 3.12524 4.49289 4.72858 2.72768 7.50358C2.03393 8.59045 2.03393 10.4173 2.72768 11.5042C4.49289 14.2792 7.02893 15.8825 9.74997 15.8825C12.471 15.8825 15.0071 14.2792 16.7723 11.5042C17.466 10.4173 17.466 8.59045 16.7723 7.50358" stroke="#6C6C6C" stroke-width="1.5" stroke-linecap="round" stroke-linejoin="round"/>
</svg>
